<svg width="72" height="72" viewBox="0 0 72 72" fill="none" xmlns="http://www.w3.org/2000/svg">
<circle cx="36" cy="36" r="36" fill="#1A1D27"/>
<path d="M48.1094 21.9676C44.418 16.5508 39.8867 13.2969 36 13.2969C32.1133 13.2969 27.582 16.5508 23.8906 21.9676C20.1992 27.3844 18.0312 34.0645 18.0312 40.0938C18.0313 44.764 19.9244 49.2431 23.2942 52.5455C26.664 55.8479 31.2344 57.7031 36 57.7031C40.7656 57.7031 45.336 55.8479 48.7058 52.5455C52.0756 49.2431 53.9688 44.764 53.9688 40.0938C53.9688 34.0645 51.8398 27.4609 48.1094 21.9676ZM36 53.1094C32.4792 53.1043 29.104 51.7314 26.6144 49.2916C24.1248 46.8518 22.7239 43.5442 22.7188 40.0938C22.7188 28.3988 31.7422 17.8906 36 17.8906C37.4844 17.8906 39.5352 19.1539 41.5859 21.3168L34.6133 28.9348C34.3567 29.2093 34.1727 29.5413 34.0773 29.9017C33.982 30.262 33.9782 30.6398 34.0664 31.002C34.1558 31.3649 34.3342 31.701 34.586 31.9811C34.8379 32.2613 35.1556 32.4771 35.5117 32.6098L39.3008 34.0453L38.2656 39.2707C38.1506 39.8693 38.2809 40.4882 38.6282 40.9933C38.9755 41.4984 39.5118 41.8492 40.1211 41.9695L40.5703 42.0078C41.1137 42.0052 41.6396 41.8191 42.0594 41.4809C42.4792 41.1428 42.7672 40.6731 42.875 40.1512L44.2812 33.0309C44.3815 32.503 44.2899 31.9573 44.0223 31.4888C43.7547 31.0202 43.328 30.6583 42.8164 30.466L40.3555 29.5281L44.4961 25.0109C47.1719 29.0496 49.2812 34.4281 49.2812 40.0938C49.2761 43.5442 47.8752 46.8518 45.3856 49.2916C42.896 51.7314 39.5208 53.1043 36 53.1094Z" fill="#F5C642"/>
</svg>
